<svg transform="scale(1)" id="_82_recycling_outline" xmlns="http://www.w3.org/2000/svg" xmlns:xlink="http://www.w3.org/1999/xlink" viewBox="0 0 500 500" class="show_show__wrapper__graphic__5Waiy "><title>React</title><defs><style>.cls-1{fill:url(#linear-gradient);}.cls-1,.cls-2,.cls-3,.cls-4,.cls-5,.cls-6,.cls-7,.cls-8,.cls-9,.cls-10,.cls-11,.cls-12,.cls-13{stroke-width:0px;}.cls-2{opacity:.18;}.cls-2,.cls-3,.cls-14{isolation:isolate;}.cls-2,.cls-13{fill:#40ce74;}.cls-3,.cls-11{fill:#fff;}.cls-3,.cls-14{opacity:.54;}.cls-4{fill:url(#linear-gradient-6);opacity:.34;}.cls-5{fill:url(#linear-gradient-4);}.cls-6{fill:url(#linear-gradient-2);}.cls-7{fill:url(#linear-gradient-3);}.cls-8{fill:url(#linear-gradient-7);}.cls-9{fill:url(#linear-gradient-5);}.cls-10{fill:#231f20;}.cls-12{fill:#ffaa71;}</style><linearGradient id="linear-gradient" x1="296.09" y1="2630.73" x2="296.09" y2="2546.71" gradientTransform="translate(-59.68 2997.18) scale(1 -1)" gradientUnits="userSpaceOnUse"><stop offset="0" stop-color="#000"></stop><stop offset=".13" stop-color="#000" stop-opacity=".69"></stop><stop offset="1" stop-color="#000" stop-opacity="0"></stop></linearGradient><linearGradient id="linear-gradient-2" x1="202.47" y1="2688.69" x2="330.55" y2="2833.77" xlink:href="#linear-gradient"></linearGradient><linearGradient id="linear-gradient-3" x1="-5013.05" y1="2694.76" x2="-4898.58" y2="2824.42" gradientTransform="translate(-4687.66 2997.18) rotate(-180)" xlink:href="#linear-gradient"></linearGradient><linearGradient id="linear-gradient-4" x1="95.42" y1="176.04" x2="124.05" y2="176.04" gradientTransform="matrix(1,0,0,1,0,0)" xlink:href="#linear-gradient"></linearGradient><linearGradient id="linear-gradient-5" x1="130.43" y1="186.44" x2="147.05" y2="186.44" gradientTransform="matrix(1,0,0,1,0,0)" xlink:href="#linear-gradient"></linearGradient><linearGradient id="linear-gradient-6" x1="157.26" y1="2755.97" x2="157.26" y2="2654.01" gradientTransform="translate(-31 2998.54) scale(1 -1)" xlink:href="#linear-gradient"></linearGradient><linearGradient id="linear-gradient-7" x1="400.84" y1="2754.13" x2="400.84" y2="2652.17" gradientTransform="translate(-31 2998.54) scale(1 -1)" xlink:href="#linear-gradient"></linearGradient></defs><g id="background"><path class="cls-2" d="M274.93,433.95c49.67-.6,101.34-1.69,145.65-24.13,11.52-5.85,22.47-13.16,31.07-22.8,15.81-17.71,22.58-42.41,21.01-66.08-.88-14.35-4.82-28.35-11.55-41.05-5.79-10.74-13.68-20.33-18.54-31.53-17.58-40.46,8.37-89.58-7.8-130.62-9.01-22.87-30.15-39.28-53.16-47.88-23.01-8.6-47.95-10.33-72.5-11.11-20.92-.67-42.65-.9-61.43-10.17-8.56-4.24-16.21-10.17-24.92-14.08-32.62-14.56-69.89,2.86-101.27,19.94-7.1,3.85-14.3,7.79-20.03,13.49-6.03,5.99-10.17,13.61-14.89,20.65-20.8,30.77-56.67,55.02-59.3,92.07-2.34,32.89,23.28,61.23,28.8,93.73,6.1,35.78-12.6,70.47-20.9,105.77-4.24,17.98-5,45.16,14.97,54.67,15.43,7.34,43.14,1.35,59.49,1.15l165.3-2.02Z"></path><path class="cls-2" d="M383.17,183.35c-.85-10.39-1.8-20.98-5.93-30.5-7.34-16.83-23.9-28.09-41.24-34.13-11.45-3.99-23.42-6.08-35.44-7.95-14.52-2.27-28.34,7.45-30.71,21.94,0,.09,0,.19-.04.29-2.66,16.94,3.67,35.82-4.81,50.77-8.34,14.71-28.05,19.1-44.72,16.29-8.15-1.38-16.52-4.41-21.66-10.88-4.61-5.79-6.01-13.55-10.17-19.67-3.85-5.62-9.78-9.43-15.55-13.05-5.19-3.25-10.51-6.53-16.45-8.02s-12.71-.94-17.49,2.9c-9.39,7.56-6.55,22.23-9.32,33.95-4.79,20.12-27.79,34.27-26.6,54.9.65,11.34,8.67,20.7,15.88,29.47,11.17,13.6,21.74,28.99,23.12,46.54.59,7.54-.56,15.2.79,22.64,1.49,8.22,7.22,16.68,16.04,16.52,1.18-.03,2.36.19,3.46.64,4.59,1.91,3.19,5.77,3.09,9.15-.15,5.2,3.18,10.02,7.44,13.01s9.39,4.46,14.4,5.8c26.03,6.95,53.13,11.8,79.88,8.47,26.74-3.33,53.3-15.6,69.06-37.46,10.48-14.54,15.58-32.19,20.48-49.4l8.78-31.12c2.14-7.51,4.35-15.07,7.45-22.26,3.2-7.42,9.26-13.14,12.51-20.19,2.61-5.66.85-11.77.31-17.79-.86-10.34-1.71-20.61-2.56-30.88Z"></path></g><path class="cls-1" id="shadow" d="M42.4,408.59c-5.08,1.39-11.73,5.74-8.8,10.12,1.08,1.6,3.11,2.22,5,2.54,7.51,1.3,15.17-.15,22.69-1.34,48.24-7.58,97.42-3.66,146.21-1.5,57.69,2.57,115.42,2.65,173.18.23,10.56-.44,21.25-.98,31.34-4.07,10.63-3.27,20.24-9.22,27.9-17.28-11.16-5.69-24.19-5.93-36.71-6.07l-86.25-.89c-1.21,4.42,4.15,7.56,8.6,8.66,4.45,1.1,9.95,3,10.1,7.54-19.04.73-38.35,1.44-56.94-2.78-7.31-1.69-14.48-4.07-21.91-5.02-7.81-1.01-15.72-.38-23.57.25l-62.56,4.99c.84-4.79,4.06-8.83,8.55-10.71-25.09-.69-50.19-.68-75.3.04-10.52.3-22.53-.76-32.32,2.87-9.97,3.67-18.7,9.54-29.22,12.42Z"></path><g id="character"><path class="cls-13" d="M268.16,265.68l-51.99-.58-11.78-.14v-.25c-.13-2.36-1.01-20.92,0-41.37,0-.06,0-.13,0-.19.37-8.85,1.22-17.67,2.54-26.42h0c2.02-12.4,5.27-23.03,10.45-28.12,1.03-1.01,10.5-12.71,25.73-9.78,15.22,2.93,23.33,2.77,25.72,39.13.6,8.4-.68,67.72-.68,67.72Z"></path><path class="cls-6" d="M216.18,265.09l-11.78-.14v-.25c-.07-2.54-.58-23.02,0-41.37,0-.06,0-.13,0-.19.34-11.12,1.09-21.42,2.54-26.42h0c.11-.37.23-.72.36-1.03,0,0,4.56-3.56,4.87-1.69.33,1.69,1.66,58.91,4.01,71.1Z"></path><path class="cls-7" d="M256.2,265.72l11.78-.13v-.25c.07-2.54,2.04-63.99.56-68.99,0,0-2.04-1.89-3.62,5.98-.35,1.7-6.37,51.21-8.72,63.39Z"></path><path class="cls-12" d="M237.41,161.54c.34.36.76.65,1.22.85.48.15.99.22,1.5.19,1.05.05,2.09-.14,3.06-.56,1.09-.59,1.93-1.56,2.36-2.72.42-1.15.6-2.38.52-3.61.01-.25-.04-.51-.17-.73-.27-.3-.67-.48-1.08-.47-1.69-.22-3.42-.38-5.18-.48-1.04-.07-3.46-.64-4.24.24-1.57,1.78.73,6.02,2.01,7.29Z"></path><path class="cls-12" d="M229.16,141.79c.14,2.12.7,4.19,1.64,6.09,1.75,3.06,5.34,4.74,8.86,4.95,2.76.23,5.52-.57,7.73-2.24,1.2-1.06,2.23-2.29,3.06-3.65.68-.97,1.25-2.02,1.69-3.13.43-1.29.7-2.64.8-4,.32-3.12.5-6.26.53-9.39.05-1.31-.03-2.62-.24-3.91-.41-2.22-1.47-4.27-3.06-5.88-.55-.6-1.24-1.06-2.01-1.35-.77-.2-1.57-.25-2.36-.14-1.37.08-2.74.21-4.1.38-.98.09-1.94.28-2.88.58-1.41.53-2.7,1.33-3.8,2.37-2.54,2.3-4.45,5.22-5.54,8.47-.55,1.45-.88,2.98-.97,4.52.09,2.12.3,4.24.64,6.34Z"></path><path class="cls-10" d="M225.16,130.95c-.42-1.38-.73-2.8-.91-4.24-.18-2.93.36-5.86,1.56-8.53.27-.69.62-1.35,1.04-1.97.61-.75,1.36-1.39,2.19-1.87,5.65-3.56,12.9-3.96,19.36-2.23,3.73.99,7.62,2.67,11.29,1.58-.2.71-.55,1.37-1.02,1.94,1.16-.04,2.29-.42,3.24-1.1-.1.8-.39,1.57-.85,2.24l1.19-.36c-1.22,2.11-2.6,4.13-4.13,6.03-.42.48-.77,1.01-1.05,1.58-.27.91-.42,1.85-.42,2.8-.22,1.46-.63,2.88-1.2,4.24l-1.57,4.16c-.63-3.46.28-7.34-1.64-10.28-.35-.57-.84-1.03-1.42-1.35-1.27-.63-2.76-.15-4.14.14-3.62.76-7.35.23-11.01.09-.67-.07-1.34.02-1.97.26-.45.26-.85.6-1.17,1.01-.89.98-1.61,2.1-2.14,3.3-.48,1.23-.83,2.51-1.03,3.82-.16.85-.2,3.39-.85,3.94-1.55,1.25-3.09-4.3-3.35-5.22Z"></path><path class="cls-10" d="M253.03,143.08c-.21,3.32-.53,6.9-2.74,9.39-1.69,1.74-3.95,2.81-6.36,3.02-2.4.2-4.81.12-7.18-.25-.97-.05-1.93-.28-2.82-.69-2.26-1.19-3.93-3.27-4.62-5.73l-1.03-4.99c-.52-2.5.34-5.28.27-7.83.51,1.71,1.29,3.33,2.31,4.79.44.7,1.02,1.31,1.69,1.8,1.04.57,2.2.87,3.39.89,1.84.16,3.68.22,5.52.18,1.7.02,3.4-.21,5.04-.68,1.65-.48,3.08-1.52,4.06-2.93.48-.75,1.87-5.4,2.75-4.85s-.21,6.81-.28,7.86Z"></path><path class="cls-12" d="M245.3,146.42c.13,0,.26.02.39.07.27.15.45.42.47.73.13,1.37-.65,2.67-1.92,3.2-1.25.48-2.61.64-3.94.45-.5-.02-.99-.12-1.46-.3-.5-.25-.94-.61-1.3-1.03-.21-.2-.37-.44-.5-.7-.18-.49-.09-1.03.24-1.43.8-1.01,2.14-.97,3.3-1.02,1.58-.06,3.15-.04,4.73.03Z"></path><path class="cls-10" d="M204.43,264.96l6.78,112.19-.48,17.39s-13.55,7.25-14.01,11.11c-.46,3.86,21.74,1.93,21.74,1.93l11.11-100.48s8.21-11.11,12.56-.97c4.35,10.14.48,102.42.48,102.42,0,0,18.71,1.69,20.16-.48,1.45-2.18-7.96-10.87-7.96-10.87,0,0,11.95-92.75,11.95-99.96s1.45-31.52,1.45-31.52l-63.78-.76Z"></path><path class="cls-13" d="M263.9,165.83l21.95,19.11s29.65-19.32,34.97-17.87,12.08,15.46-4.83,23.19c-5.08,2.31-13.02,7.44-20.26,11.58-7.97,4.54-17.97,3.29-24.57-3.08l-11.86-11.47c-3.58-4.24-8.47-6.45-8.61-12.01l-.47-2.83c-.14-6.79-1.66-15.58,13.68-6.61Z"></path><path class="cls-13" d="M205.49,171.62c-3.39,1.6-6.78,3.22-10.47,3.83s-7.43.19-11.11-.36c-8.07-1.21-16.02-3.05-23.8-5.51-2.86-.91-5.79-1.91-8.79-1.82s-6.18,1.56-7.38,4.31c-2.09,4.81,2.65,9.76,7.16,12.44,10.29,6.12,21.97,9.43,33.49,12.71,3.74,1.01,7.51,2.08,11.37,1.86,3.98-.23,7.74-1.82,11.4-3.39,6.16-2.68,12.66-5.73,16.19-11.44,2.21-3.57,6.13-17.26,1.69-20.33-3.54-2.51-16.11,5.98-19.75,7.71Z"></path><path class="cls-12" d="M329.24,164.4c2-2.25,3.6-4.86,5.86-6.85,2.45-2.14,5.54-3.43,8.78-3.66.98-.1,1.97,0,2.91.29,2.54.89,3.84,3.72,4.16,6.38.25,1.69.04,3.42-.6,5-1.22,2.69-4.03,4.32-6.84,5.26s-5.79,1.4-8.47,2.66c-2.82,1.33-5.4,3.58-8.52,3.61-2.5,0-7.26-2.79-5.85-5.86.65-1.41,2.97-2.12,4.18-2.96,1.6-1.11,3.07-2.41,4.37-3.86Z"></path><path class="cls-12" d="M145.13,163.87c-2-2.25-3.6-4.86-5.86-6.85-2.45-2.15-5.53-3.45-8.78-3.69-.98-.11-1.97,0-2.91.29-2.54.89-3.85,3.72-4.16,6.38-.26,1.69-.05,3.42.59,5,1.22,2.69,4.03,4.32,6.84,5.26,2.81.94,5.79,1.4,8.47,2.66,2.82,1.33,5.4,3.57,8.53,3.61,2.49,0,7.26-2.79,5.84-5.86-.64-1.41-2.97-2.12-4.18-2.96-1.61-1.1-3.08-2.39-4.39-3.83Z"></path><path class="cls-13" d="M147.03,196.41c.05.3-.03.61-.22.85-1.95,3.3-7.03,3.08-10.25.99-3.75-2.54-6.04-6.74-6.12-11.28-.02-.71.03-1.41.13-2.11,0-.21.07-.42.1-.62l-.1.53c-.36,1.89-.72,3.79-1.07,5.67-.66,3.39-1.33,6.9-2.92,10.02s-4.24,5.83-7.62,6.65c-1.82.44-3.99.18-5.13-1.3-.41-.56-.67-1.21-.76-1.9-.46-2.91,1.4-5.64,2.81-8.24,2.4-4.4,3.77-9.3,4-14.31-1.06,1.56-2.44,2.88-4.04,3.88-4.74,2.97-11.25,3.27-15.96.16-1.82-1.13-3.23-2.82-4.02-4.82-.75-2.02-.35-4.29,1.05-5.93,1.49-1.62,3.95-1.88,5.75-.61.73.61,1.2,1.47,1.89,2.13,1.8,1.77,4.79,1.82,7.05.67,2.18-1.28,3.95-3.17,5.08-5.43,1.01-1.75,1.87-3.64,3.31-5.08,1.06-1.12,2.53-1.76,4.07-1.78,1.39.07,2.83,1.69,4.12,1.36,2.54-.71,1.13-5.33,3.71-6.07,1.35-.37,2.66,1.08,2.7,2.48s-.79,2.69-1.56,3.86c3.39,1.31,4.84,5.37,4.96,9s-.66,7.31.06,10.87c.92,4.31,3.9,7.89,7.98,9.57.32.11.61.29.85.53.06.07.12.16.15.25Z"></path><path class="cls-5" d="M124.05,164.51c-4,.4-4.24,16.82-4.24,16.82l-4.04,3.88c-4.74,2.97-11.25,3.27-15.96.16-1.82-1.13-3.23-2.82-4.02-4.82-.75-2.02-.35-4.29,1.05-5.93,1.49-1.62,3.95-1.88,5.75-.61.73.61,1.2,1.47,1.89,2.13,1.8,1.77,4.79,1.82,7.05.67,2.18-1.28,3.95-3.17,5.08-5.43,1.01-1.75,1.87-3.64,3.31-5.08,1.07-1.14,2.56-1.79,4.12-1.8Z"></path><path class="cls-9" d="M147.03,196.41c.05.3-.03.61-.22.85-1.95,3.3-7.03,3.08-10.25.99-3.75-2.54-6.04-6.74-6.12-11.28,0-.14,0-.28,0-.42,0-.57.08-1.12.1-1.69v-.09c.03-2.42.34-4.82.92-7.17.24-.82.54-1.62.91-2.4.21-.46,1.29-1.65,1.29-2.11.1,3.5.4,6.99.91,10.45.17,1.36.34,2.71.62,4.05.31,2.4,1.59,4.56,3.53,6,.88.79,1.91,1.39,3.02,1.78,1.47.45,3.06.3,4.57.62.19.03.38.08.57.15.07.08.12.17.16.27Z"></path><path class="cls-3" d="M369.91,184.62l-4.42,2.25c-4.35,2.22-9.68.54-11.97-3.77l-13.55-25.41c-.18-.34-.19-.75-.04-1.1l.75-1.69c.28-.64,0-1.38-.64-1.66-.18-.08-.38-.12-.58-.11h-.97c-.49.03-.95-.23-1.19-.65l-5.8-10.72c-.19-.34-.21-.74-.07-1.09l2.54-6.11s.04-.09.07-.13l-3.5-5.51,6.11-3.88,3.91,6.13,7.74.58c.43.03.81.29,1.02.67l6.9,12.78c.1.19.16.4.16.61,0,.28-.1.55-.26.77-.42.56-.3,1.36.26,1.78.13.1.29.17.45.21l3.24.85c.33.1.62.32.8.61l12.77,22.15c2.46,4.3.96,9.77-3.33,12.23-.13.07-.25.14-.38.21Z"></path><path class="cls-3" d="M371.61,183.17l-4.43,2.25c-4.35,2.22-9.67.54-11.96-3.77l-13.55-25.41c-.16-.35-.16-.75,0-1.1l.75-1.69c.28-.64,0-1.38-.64-1.66-.18-.08-.38-.12-.58-.11h-.97c-.49.03-.95-.22-1.19-.65l-5.85-10.72c-.18-.34-.21-.74-.06-1.09l2.54-6.11s.04-.08.06-.11l-3.51-5.51,6.12-3.88,3.9,6.13,7.75.58c.43.04.81.29,1.02.67l6.9,12.79c.24.44.2.98-.1,1.38-.42.55-.32,1.35.24,1.77.14.1.3.18.46.22l3.24.85c.33.09.62.31.8.61l12.78,22.15c2.44,4.32.92,9.8-3.4,12.24-.11.06-.21.12-.32.17Z"></path><polygon class="cls-2" points="340.49 151.84 356.08 144.24 356.32 147.59 360.03 149.41 364.79 157.01 347.02 166.07 341.7 156.25 342.76 153.03 340.49 151.84"></polygon></g><g id="trash_2"><polygon class="cls-13" points="65.13 240.18 74.16 395.25 179.17 395.25 187.38 241 65.13 240.18"></polygon><polygon class="cls-4" points="65.14 238.34 74.16 393.4 179.18 393.4 187.38 239.16 65.14 238.34"></polygon><rect class="cls-13" x="60.21" y="223.77" width="133.12" height="17.64"></rect><g class="cls-14"><path class="cls-11" d="M145.86,284.88l6.58-3.74c-.01.17-.04.33-.08.49-2.74,4.75-5.48,9.51-8.25,14.26-.18.31-.49.53-.85.59-5.69,0-11.39,0-17.15-.21l6.53-3.78-3.49-6.01-8.36,14.4-12.82-7.39c.18-.37.33-.74.53-1.07,2.39-4.13,4.81-8.25,7.15-12.41,1.12-2.21,3.45-3.55,5.93-3.39,5.02.03,10.05.03,15.09,0,2.78-.18,5.4,1.33,6.63,3.82.79,1.47,1.64,2.86,2.56,4.43Z"></path><path class="cls-11" d="M102.1,303.47l-6.78-3.94c.51,0,.76-.08,1.02-.08h15.71c.55,0,1.07.25,1.43.67,2.79,4.68,5.51,9.39,8.23,14.1.11.23.21.46.29.7l-6.78-3.86-3.46,6.05h16.67v14.82c-.41,0-.85.08-1.21.08h-14.2c-2.48.15-4.81-1.18-5.93-3.39-2.54-4.52-5.18-9-7.77-13.49-1.29-2.11-1.29-4.76,0-6.87.9-1.59,1.8-3.1,2.77-4.78Z"></path><path class="cls-11" d="M139.98,309.2v7.41h6.9l-8.26-14.33,12.83-7.48c.25.41.49.74.69,1.09,2.37,4.09,4.71,8.21,7.12,12.27,1.35,2.02,1.37,4.65.05,6.69-2.64,4.47-5.23,8.97-7.82,13.48-1.15,2.24-3.5,3.61-6.01,3.5h-5.41v7.95c-.39-.53-.58-.75-.73-1.01-2.6-4.49-5.18-9-7.82-13.48-.4-.58-.4-1.35,0-1.93,2.77-4.74,5.48-9.5,8.22-14.26l.24.09Z"></path></g></g><g id="trash_2-2"><polygon class="cls-10" points="308.72 240.18 317.74 395.25 422.76 395.25 430.96 241 308.72 240.18"></polygon><polygon class="cls-8" points="308.72 240.18 317.74 395.25 422.76 395.25 430.96 241 308.72 240.18"></polygon><rect class="cls-10" x="303.79" y="223.77" width="133.12" height="17.64"></rect><g class="cls-14"><path class="cls-11" d="M384.72,284.88l6.58-3.74c0,.17-.03.33-.08.49-2.74,4.76-5.49,9.51-8.24,14.26-.18.31-.49.53-.85.59-5.69,0-11.38,0-17.15-.21l6.53-3.78-3.48-6.01c-2.85,4.9-5.58,9.61-8.36,14.4l-12.83-7.39c.19-.37.34-.74.53-1.07,2.38-4.13,4.81-8.25,7.14-12.41,1.12-2.21,3.45-3.54,5.93-3.39,5.03.03,10.06.03,15.09,0,2.78-.18,5.4,1.33,6.64,3.82.77,1.47,1.64,2.86,2.54,4.43Z"></path><path class="cls-11" d="M340.96,303.47l-6.78-3.94c.52,0,.77-.08,1.03-.08h15.71c.55.01,1.07.25,1.42.67,2.79,4.68,5.51,9.39,8.24,14.1.07.13.11.28.29.7l-6.78-3.86-3.46,6.05h16.63v14.82c-.42,0-.85.08-1.22.08h-14.19c-2.48.15-4.81-1.18-5.93-3.39-2.54-4.52-5.18-9-7.77-13.49-1.29-2.11-1.29-4.76,0-6.87.91-1.59,1.81-3.1,2.8-4.78Z"></path><path class="cls-11" d="M378.83,309.2v7.41h6.88l-8.26-14.33,12.86-7.48c.25.41.49.74.69,1.09,2.37,4.09,4.71,8.21,7.12,12.27,1.35,2.02,1.37,4.65.05,6.69-2.63,4.47-5.24,8.97-7.81,13.48-1.15,2.24-3.5,3.6-6.01,3.5h-5.42v7.95c-.39-.53-.58-.75-.73-1.01-2.6-4.49-5.18-9-7.81-13.48-.42-.58-.42-1.36,0-1.93,2.76-4.74,5.48-9.5,8.21-14.26l.24.09Z"></path></g></g></svg>