<svg transform="scale(1)" id="LAIb2BD6lv" xmlns="http://www.w3.org/2000/svg" xmlns:xlink="http://www.w3.org/1999/xlink" viewBox="0 0 500 500" class="pbimage_pbimage__wrapper__image__0LEis false"><title>Chasing Money 1</title><defs><style> .cls-1{fill:#21191a;} .cls-1, .cls-2, .cls-3, .cls-4, .cls-5, .cls-6, .cls-7, .cls-8, .cls-9, .cls-10, .cls-11, .cls-12{stroke-width:0px;} .cls-2{fill:#ffb5a6;} .cls-3{fill:url(#linear-gradient-LAIb2BD6lv);} .cls-4{fill:#68e1fd;} .cls-5{fill:url(#linear-gradient-4-LAIb2BD6lv);} .cls-6{fill:url(#linear-gradient-2-LAIb2BD6lv);} .cls-7{fill:url(#linear-gradient-3-LAIb2BD6lv);} .cls-8{fill:url(#linear-gradient-7-LAIb2BD6lv);} .cls-9{fill:url(#linear-gradient-5-LAIb2BD6lv);} .cls-10{fill:url(#linear-gradient-6-LAIb2BD6lv);} .cls-11{fill:#68e2fd;isolation:isolate;opacity:.18;} .cls-12{fill:#fff;}
 .cls-12{fill:#FFFFFF;}
 .cls-11{fill:#368d56;}
 .cls-4{fill:#71b074;}
 .cls-2{fill:#FFB5A6;}
 .cls-1{fill:#4c2429;}</style><linearGradient id="linear-gradient-LAIb2BD6lv" x1="399.05" y1="274.58" x2="510.34" y2="381.23" gradientTransform="translate(-12.97 20.26) rotate(-3.22)" gradientUnits="userSpaceOnUse"><stop offset="0" stop-color="#000" style="stop-color: rgb(0, 0, 0);"></stop><stop offset=".2" stop-color="#000" stop-opacity=".69" style="stop-color: rgb(0, 0, 0);"></stop><stop offset=".32" stop-color="rgba(0,0,0,.32)" stop-opacity=".32" style="stop-color: rgba(0, 0, 0, 0.992);"></stop><stop offset="1" stop-color="#000" stop-opacity="0" style="stop-color: rgb(0, 0, 0);"></stop></linearGradient><linearGradient id="linear-gradient-2-LAIb2BD6lv" x1="314.94" y1="199.86" x2="482.54" y2="471.45" xlink:href="#linear-gradient-LAIb2BD6lv"></linearGradient><linearGradient id="linear-gradient-3-LAIb2BD6lv" x1="343.5" y1="132.58" x2="414.6" y2="295.54" xlink:href="#linear-gradient-LAIb2BD6lv"></linearGradient><linearGradient id="linear-gradient-4-LAIb2BD6lv" x1="339.99" y1="163.32" x2="371.62" y2="174.91" xlink:href="#linear-gradient-LAIb2BD6lv"></linearGradient><linearGradient id="linear-gradient-5-LAIb2BD6lv" x1="271.41" y1="142.7" x2="216.59" y2="163.24" xlink:href="#linear-gradient-LAIb2BD6lv"></linearGradient><linearGradient id="linear-gradient-6-LAIb2BD6lv" x1="237.46" y1="142.22" x2="239.79" y2="145.83" xlink:href="#linear-gradient-LAIb2BD6lv"></linearGradient><linearGradient id="linear-gradient-7-LAIb2BD6lv" x1="283.15" y1="219.72" x2="-56.68" y2="281.99" gradientUnits="userSpaceOnUse"><stop offset="0" stop-color="#000" style="stop-color: rgb(0, 0, 0);"></stop><stop offset=".02" stop-color="rgba(0,0,0,.84)" stop-opacity=".84" style="stop-color: rgba(0, 0, 0, 0.84);"></stop><stop offset=".1" stop-color="#000" stop-opacity=".69" style="stop-color: rgb(0, 0, 0);"></stop><stop offset=".23" stop-color="rgba(0,0,0,.39)" stop-opacity=".39" style="stop-color: rgb(0, 0, 0);"></stop><stop offset="1" stop-color="#000" stop-opacity="0" style="stop-color: rgb(0, 0, 0);"></stop></linearGradient></defs><path class="cls-11" id="Background" d="M487.25,291.28c-.21,10.3-.49,20.68-1.13,31.01-.77,12.41-2.04,24.77-4.32,36.89-2.02,10.68-4.81,21.17-8.74,31.36-12.05,31.35-36.74,59.75-69.42,67.55-35.89,8.57-72.21-8.55-106.38-22.46-22.56-9.19-47.54-17.28-72.23-15.39-19.55,1.49-37.98,9.76-57.63,12.59-40.77,5.89-86.37,5.02-117.89-21.49-18.09-15.22-24.98-32.91-27.69-52.16-2.03-14.46-1.72-29.79-2.03-45.6-.71-36.02,15-83.78,37.16-112.39,11.07-14.28,25.48-25.69,36.74-39.84,21.99-27.61,31.33-64.73,57.57-88.36,9.46-8.52,20.69-14.84,32.11-20.46,13.04-6.43,26.72-12.12,41.17-13.75,13.94-1.56,27.98.72,41.78,3.2,19.86,3.56,39.9,7.61,58.1,16.31,19.61,9.37,36.64,24.08,48.78,42.1,22.24,33.04,60.96,45.4,86.88,75.16,26.65,30.62,28.03,75.14,27.18,115.72Z"></path><g id="bubble"><path class="cls-12" d="M318.73,120.47c4.08-4.55,6.56-10.56,6.56-17.15,0-14.21-11.52-25.72-25.72-25.72s-25.72,11.52-25.72,25.72,11.52,25.72,25.72,25.72c4.75,0,9.2-1.29,13.01-3.54l11.71,7.24-5.55-12.27Z" fill="#FFFFFF"></path><path class="cls-4" d="M295.36,108.83c.22,2.5,1.46,4.61,4.5,4.57,2.82-.04,4.21-1.42,4.17-4.59-.03-2.61-1.35-4.14-4.8-5.76-4.16-1.87-6.33-3.72-6.38-7.65-.05-3.98,2.43-6.66,6.59-6.71,4.95-.06,6.69,3.04,6.83,6.43l-2.8.04c-.1-1.92-.92-4.09-4.04-4.05-2.62.03-3.79,1.56-3.75,4.07s1.41,3.67,4.78,5.19c4.48,2,6.44,4.27,6.49,8.15.05,4.25-2.19,7.28-7.15,7.27-5.03-.01-7.02-2.93-7.31-6.92l2.87-.04ZM299.05,118.78l-.42-32.38,1.86-.02.42,32.38-1.86.02Z" fill="#71b074"></path></g><g id="people"><path class="cls-1" d="M462.81,281.84c.6-.23,1.25-.46,1.88-.32.67.15,1.17.67,1.63,1.17,2.22,2.41,4.53,4.94,5.37,8.11.63,2.37.39,4.87.74,7.29.47,3.23,1.99,6.19,3.26,9.2s2.32,6.28,1.77,9.5c-.54,3.22-3.14,6.3-6.4,6.36-3.93.08-6.65-3.88-8.05-7.55-2.18-5.75-3.24-12.36-7.82-16.45-.41-.37-.85-.72-1.12-1.2-.33-.6-.34-1.31-.34-1.99-.03-9.34-.04-10.56,9.07-14.12Z"></path><path class="cls-4" d="M385.1,270.63s17.77,48.54,33.4,51.2c8.63,1.47,17.96-3.5,25.18-7.64,3.81-2.19,7.5-4.6,11.08-7.15,1.13-.81,3.12-1.77,3.93-2.9,1.43-1.97.96-6.44.62-8.82-.56-3.88-2.6-7.96-6.79-6.58-2.89.95-5.8,1.85-8.71,2.78-4.65,1.48-9.29,2.97-13.94,4.45l-14.22-48.3-30.55,22.95Z"></path><path class="cls-3" d="M385.1,270.63s17.77,48.54,33.4,51.2c8.63,1.47,17.96-3.5,25.18-7.64,3.81-2.19,7.5-4.6,11.08-7.15,1.13-.81,3.12-1.77,3.93-2.9,1.43-1.97.96-6.44.62-8.82-.56-3.88-2.6-7.96-6.79-6.58-2.89.95-5.8,1.85-8.71,2.78-4.65,1.48-9.29,2.97-13.94,4.45l-14.22-48.3-30.55,22.95Z"></path><path class="cls-4" d="M371.1,237.97c-8.34,5.1-16.67,10.19-25.01,15.29-4.36,2.67-8.78,5.38-12.31,9.08-3.27,3.44-5.66,7.61-7.7,11.9-7.09,14.94-10.12,31.42-13.07,47.69-.93,5.1-.13,9.23,5.54,10.69,3.09.8,6.45.69,9.3,2.13,10.43-15.42,19.38-31.86,26.67-48.99.47-1.11.99-2.29,2-2.96.79-.52,1.77-.65,2.72-.77,19.22-2.5,37.8-9.8,53.58-21.07,2.15-1.54,4.28-3.17,5.9-5.27,4.9-6.35,4.1-15.26,3.06-23.21-16.65.9-33.3,1.8-49.95,2.7"></path><path class="cls-6" d="M371.1,237.97c-8.34,5.1-16.67,10.19-25.01,15.29-4.36,2.67-8.78,5.38-12.31,9.08-3.27,3.44-5.66,7.61-7.7,11.9-7.09,14.94-10.12,31.42-13.07,47.69-.93,5.1-.13,9.23,5.54,10.69,3.09.8,6.45.69,9.3,2.13,10.43-15.42,19.38-31.86,26.67-48.99.47-1.11.99-2.29,2-2.96.79-.52,1.77-.65,2.72-.77,19.22-2.5,37.8-9.8,53.58-21.07,2.15-1.54,4.28-3.17,5.9-5.27,4.9-6.35,4.1-15.26,3.06-23.21-16.65.9-33.3,1.8-49.95,2.7"></path><path class="cls-4" d="M338.93,197.3c-8.06,1.92-16.44-.97-24.73-.87-4.19.05-8.36.86-12.54.59-.5-.03-1-.08-1.44-.32-.58-.3-.96-.88-1.26-1.45-3.17-5.98-.38-13.55-2.54-19.97,10.33.67,20.77-.75,31.07-.57,5.96.1,11.9-.95,17.64-2.44,11.13-2.89,24.85-9.94,35.93-2.84,2.06,1.32,3.81,3.13,5.98,4.26,2.46,1.29,5.29,1.65,7.87,2.67,4,1.59,7.17,4.7,10.21,7.75,1.85,1.86,3.76,3.84,4.47,6.37.76,2.72-.75,4.8-.6,7.31.16,2.74,1.62,4.58,3.09,7.04,3.34,5.6,6.65,11.22,9.98,16.82,3.41,5.75,6.91,11.77,7.45,18.43-8.19,1.65-15.61,6.17-23.84,7.62-6.18,1.09-12.52.4-18.76-.29-4.76-.53-18.07.39-21.69-2.58-1.79-1.46-2.84-7.1-3.97-9.3-1.72-3.35-3.75-6.53-5.77-9.7-6.11-9.59-10.45-18.95-16.56-28.54Z"></path><path class="cls-7" d="M399.66,204.25c-4.06,2.51-8.31,4.7-12.71,6.54-2.83-3.59-5.66-7.19-8.49-10.78-.3-.39-.62-.81-.63-1.31,0-.44.25-.83.48-1.21,1.5-2.44,2.49-5.19,2.87-8.03-1.54,5.67-7.93,9.92-13.27,12.37s-11.17,3.72-16.48,6.22c-.82.39-1.69.87-2.02,1.71-.16.42-.17.88-.14,1.33.21,2.86,2.01,5.43,4.34,7.1s5.12,2.57,7.92,3.18c9.03,1.98,18.62,1.32,27.29-1.88.8-.3,1.62-.62,2.47-.62,2.25-.01,4.14,2.14,6.38,1.94,0-3.89,1.02-7.78,2.94-11.16.66-1.16,1.45-2.35,1.43-3.69s-1.24-2.42-2.38-1.72Z"></path><path class="cls-2" d="M346.48,173.2c.39,1.24.61,2.53.65,3.82.06,1.81-.22,3.67.26,5.42.08.3.2.6.43.8.23.2.55.26.86.29,1.55.14,3.08-.48,4.34-1.39,1.48-1.08,2.62-2.56,3.95-3.8,2.14-1.99,3.54-4.66,4.44-7.43.19-.59.36-1.22.23-1.83-.13-.59-.53-1.08-.91-1.55-1.78-2.14-3.55-4.28-5.33-6.42-.42-.5-.85-1.04-.93-1.68-3.22.84-7.97,2.51-10.03,5.31-1.45,1.96.34,4.62,1.22,6.41.32.66.6,1.35.82,2.05Z"></path><path class="cls-5" d="M354.05,168.76c-.63,2.52-2.23,4.72-4.17,6.45-.61.54-1.32,1.06-2.13,1.04-.15,0-.31-.03-.43-.11-.28-.18-.33-.55-.36-.88-.15-1.37-.48-2.72-.97-4.01-.43-1.11-.98-2.29-.67-3.44.12-.44.36-.83.64-1.19.78-1.02,1.84-1.78,2.9-2.51,1.09-.75,2.2-1.48,3.31-2.21.38-.25,1.35-.96,1.78-.49.37.4.3,1.86.36,2.39.16,1.65.17,3.34-.24,4.96Z"></path><path class="cls-1" d="M327.09,139.45c-.09-1.59.09-3.24.89-4.62.95-1.64,2.63-2.68,4.25-3.67.42-.26.87-.52,1.37-.53s1.03.36,1.02.86c1.52-2.09,3.51-3.84,5.78-5.08,1.42-.77,3.1-1.36,4.65-.88s2.69,2.4,1.85,3.78c1.88-.69,3.93-.92,5.92-.64.61.08,1.28.26,1.62.78.25.39.25.89.19,1.35-.13,1.01-.49,1.99-1.06,2.85,1.72.12,3.42.43,5.08.91,1.5.43,3.05,1.09,3.89,2.41,1.1,1.74.57,4.11-.64,5.77,1.53.19,3.03.57,4.47,1.12.56.22,1.15.48,1.48.99.64.99-.02,2.3-.76,3.22-.75.92-1.59,1.76-2.51,2.5.91-.05,1.49,1.14,1.17,2s-1.18,1.38-2.01,1.76c-1.21.55-2.49.94-3.8,1.15.43.54.17,1.39-.37,1.82s-1.26.53-1.95.58c-4.37.29-8.67-1.12-12.67-2.9s-7.84-3.94-11.99-5.32c-.93-.31-1.93-.62-2.71-1.24-.83-.66-.8-1.22-1.07-2.13-.33-1.1-1.04-2.1-1.39-3.21-.38-1.17-.61-2.4-.68-3.63Z"></path><path class="cls-2" d="M335.44,142.97c-2.26.26-4.91.88-5.34,3.44-.39,2.31-.49,4.71-.35,7.05s.75,4.56,1.11,6.78c.34,2.14.69,4.3,1.5,6.31s2.13,3.88,4.02,4.95c1.04.59,2.21.91,3.39,1.11.88.15,1.79.23,2.66.05.94-.19,1.78-.68,2.59-1.19,3.64-2.28,7.07-5.42,8.15-9.58,1.7.16,3.36-.87,4.28-2.31s1.18-3.21,1.12-4.92c-.06-1.68-.66-3.62-2.25-4.15-.83-.27-1.76-.08-2.5.38s-1.3,1.17-1.72,1.92c-.23-1.94-.8-3.84-1.68-5.58-.48-.95-1.07-1.88-1.94-2.5-.68-.48-1.49-.75-2.3-.97-3.48-.95-7.15-1.22-10.74-.81Z"></path><path class="cls-2" d="M298.05,178l.51,13.03s-7.07.17-12.43-.85c-2.21-.43-4.4-1.93-6.31-3.05-3.36-1.95-6.63-4.05-9.89-6.17-5.97-3.9-11.81-7.99-17.7-12.03-.72-.5-1.49-.89-2.36-1.1-.87-.21-1.76-.19-2.64-.35-2.91-.58-4.96-3.16-7.56-4.61-.59-.33-1.19-.53-1.79-.66-1.24-.3-2.48-.34-3.74-.81-.16-.06-.32-.13-.42-.27-.23-.29-.07-.75.22-.97.3-.22.69-.27,1.06-.31,1.2-.13,2.41-.27,3.61-.4-2.83-.49-5.67-.98-8.49-1.48-.31-.05-.66-.14-.83-.4-.18-.3-.04-.7.22-.93.26-.23.61-.31.96-.38,2.46-.47,5.03-.3,7.4.48-1.01-.88-2.23-1.46-3.51-1.86-.6-.18-1.2-.44-1.82-.44-.72,0-1.45.12-2.17.09-.97-.05-2.05-.49-2.34-1.42-.04-.1-.05-.2-.04-.3.07-.28.38-.4.66-.45.97-.22,1.96-.31,2.95-.29,1.53.05,3.05.4,4.5.88.73.24,1.43.51,2.13.8.51.21,1.34.75,1.88.68.03-.78-1.1-1.54-1.91-2.02t-.02-.02c-.18-.11-.34-.2-.46-.29-.91-.6-1.9-1.05-2.95-1.32-.01,0-.03,0-.04-.02-.1-.03-.2-.06-.3-.08-.61-.14-1.23-.23-1.83-.42-.38-.12-.75-.28-1.1-.45-.07-.04-.16-.07-.23-.11-.36-.16-.77-.41-.74-.8.04-.43.56-.6.97-.65,1.58-.15,3.17.17,4.71.51.79.18,1.6.37,2.39.56.74.18,1.47.45,2.19.74.73.3,1.27.73,1.91,1.22,2.42,1.81,4.85,3.63,7.27,5.44,2.54,1.89,5.07,3.79,7.61,5.69,1,.74,2,1.49,2.99,2.23l37.47,13.37Z"></path><path class="cls-2" d="M380.22,199.71l6.75,11.15s-6.1,3.57-11.29,5.28c-2.14.7-4.78.44-7,.39-3.88-.08-7.76-.33-11.64-.61-7.11-.52-14.2-1.27-21.31-1.95-.87-.09-1.73-.06-2.6.18-.86.24-1.63.69-2.48.97-2.83.9-5.87-.36-8.85-.38-.68,0-1.3.11-1.89.29-1.23.34-2.34.91-3.67,1.1-.17.02-.35.04-.5-.03-.34-.14-.43-.62-.28-.96.16-.34.47-.57.78-.79.99-.7,1.98-1.4,2.97-2.1-2.71.94-5.43,1.88-8.15,2.82-.3.1-.64.2-.92.05-.3-.17-.37-.59-.26-.92.12-.33.39-.57.65-.8,1.92-1.61,4.26-2.7,6.71-3.16-1.31-.28-2.66-.2-3.97.07-.61.13-1.26.19-1.8.5-.63.35-1.21.81-1.86,1.13-.87.43-2.03.57-2.73-.11-.08-.07-.14-.15-.18-.25-.08-.28.14-.54.35-.72.74-.66,1.56-1.22,2.44-1.68,1.36-.7,2.86-1.13,4.36-1.41.75-.14,1.5-.25,2.25-.34.55-.07,1.53,0,1.97-.32-.35-.69-1.71-.81-2.65-.85t-.03,0c-.21-.01-.39-.02-.55-.03-1.09-.09-2.17,0-3.22.27-.01,0-.03,0-.05,0-.11.02-.2.04-.3.07-.6.17-1.19.4-1.8.52-.39.08-.79.11-1.18.14-.08,0-.17.01-.25.02-.39.03-.87,0-1.03-.35-.18-.39.2-.8.54-1.04,1.31-.9,2.85-1.39,4.37-1.84.78-.23,1.58-.45,2.36-.67.74-.2,1.5-.32,2.28-.41.79-.09,1.47.02,2.26.14,3,.41,6,.83,8.99,1.24,3.14.43,6.27.86,9.41,1.29,1.23.16,2.47.33,3.7.51l39.26-6.44Z"></path><path class="cls-9" d="M248.13,166.98c-.11.07-.24.05-.36.04-3.06-.4-5.66-2.36-7.94-4.44-.2-.18-.41-.37-.67-.46-.34-.12-.71-.03-1.08.04-.07.01-.13.03-.2.04-1.24-.3-2.48-.34-3.74-.81-.16-.06-.32-.13-.42-.27-.23-.29-.07-.75.22-.97.3-.22.69-.27,1.06-.31,1.2-.13,2.41-.27,3.61-.4-2.83-.49-5.67-.98-8.49-1.48-.31-.05-.66-.14-.83-.4-.18-.3-.04-.7.22-.93.26-.23.61-.31.96-.38,2.46-.47,5.03-.3,7.4.48-1.01-.88-2.23-1.46-3.51-1.86-.6-.18-1.2-.44-1.82-.44-.72,0-1.45.12-2.17.09-.97-.05-2.05-.49-2.34-1.42-.04-.1-.05-.2-.04-.3.07-.28.38-.4.66-.45.97-.22,1.96-.31,2.95-.29,1.53.05,3.05.4,4.5.88.73.24,1.43.51,2.13.8.51.21,1.34.75,1.88.68.03-.78-1.1-1.54-1.91-2.02,1.03.48,2.06.96,3.09,1.46,1.14.54,2.2,1.34,3.14,2.2.51.47.98.97,1.39,1.53.28.38.63,1.62.96,1.84-2-1.32-4.39-2.04-6.78-2.02-.32.41-.25,1.02.03,1.46.28.43.72.73,1.17,1.01,1.77,1.16,3.54,2.33,5.32,3.49.24.16.5.33.69.55.24.27.39.6.52.93.19.51.36,1.02.49,1.54.06.2.09.47-.09.6Z"></path><path class="cls-10" d="M232.61,150.25c-.38-.12-.75-.28-1.1-.45,1.09.17,2.15.44,3.23.95-.1-.03-.2-.06-.3-.08-.61-.14-1.23-.23-1.83-.42Z"></path><path class="cls-1" d="M316.69,330.08c-1.1-.18-1.94.9-2.93,1.41-1.05.54-2.35.41-3.45-.04s-2.05-1.18-3.02-1.86c-2.1-1.46-4.42-2.71-6.94-3.14-3.09-.53-6.25.19-9.22,1.2-2.57.87-5.34,2.24-6.22,4.81-.65,1.9-.09,4,.72,5.83,1.73,3.96,4.55,7.39,7.84,10.19s7.05,5.01,10.93,6.93c1.86.92,3.77,1.78,5.81,2.19,1.62.32,3.3.34,4.94.16,2.68-.29,5.53-1.28,6.92-3.58,1.23-2.03,1.04-4.56,1.17-6.93.28-4.85,2.1-9.6,5.15-13.39-4.64-2.19-9.41-4.41-14.53-4.81"></path></g><g id="money"><path class="cls-1" d="M115.02,327.4c1.92,10.05,4.21,20.06,7.14,29.87,1.41,4.72,2.98,9.42,5.04,13.91,1.43,3.11,3.13,5.93,5.93,7.96,5.94,4.3,12.72,7.58,19.22,10.93,8.87,4.57,17.85,8.93,26.86,13.22,7.48,3.57,14.99,7.08,22.54,10.52l-.51-3.99c-2.57,2.86-4.81,5.99-7.38,8.86-2.18,2.43,1.41,6.04,3.59,3.59,2.57-2.86,4.81-5.99,7.38-8.86.99-1.1,1.06-3.27-.51-3.99-15.38-7-30.67-14.24-45.75-21.88-7.09-3.6-14.3-7.18-20.98-11.51-.48-.31-.96-.63-1.43-.96-.23-.16-.45-.32-.67-.48-.1-.07-.2-.15-.31-.23.7.51.15.12,0-.02-.21-.21-.43-.41-.63-.64-.11-.12-.21-.25-.32-.37-.38-.45.33.47-.02-.04-.49-.71-.95-1.43-1.37-2.19-.97-1.75-1.71-3.46-2.34-5.04-.92-2.32-1.73-4.68-2.49-7.06-3.44-10.77-5.98-21.86-8.1-32.96-.26-1.35-1.88-2.12-3.13-1.78-1.41.39-2.03,1.77-1.78,3.13h0Z"></path><path class="cls-1" d="M82.72,245.69c-5.18,3.81-10.68,7.18-16.43,10.05-2.79,1.39-5.66,2.8-8.63,3.79-1.33.44-2.7.78-4.11.58-1.52-.21-2.95-.89-4.28-1.62-10.48-5.73-15.7-17.26-19.14-28.13-.56-1.76-1.08-3.54-1.6-5.32-.26-.89-.51-1.78-.76-2.67-.2-.69-.56-1.53-.46-2.26.08-.59.44-.92.9-.65.25.15.19.72-.12,1.02-2.38,2.26,1.22,5.85,3.59,3.59,2.6-2.47,2.26-7.17-.93-9.01s-7.66.1-8.39,3.76c-.41,2.05.26,4.07.82,6.02s1.11,3.85,1.7,5.77c1.18,3.82,2.51,7.58,4.11,11.24,2.83,6.46,6.79,12.65,12.23,17.22,2.79,2.34,5.96,4.45,9.46,5.56,4.17,1.33,8,.04,11.84-1.6,8.06-3.42,15.69-7.77,22.75-12.95,1.1-.81,1.66-2.2.91-3.48-.64-1.09-2.36-1.73-3.48-.91h0Z"></path><path class="cls-1" d="M166.33,233.37c5.39-3.7,11.09-6.94,17.05-9.65,2.81-1.28,5.7-2.57,8.67-3.41,1.27-.36,2.59-.59,3.91-.34,1.52.29,2.9,1,4.22,1.78,10.34,6.09,15.14,17.97,18.21,28.99.5,1.78.96,3.57,1.42,5.37.36,1.41,1.16,3.2,1.01,4.68-.07.73-.67.72-.99.57-.24-.11-.08-.73.26-1.04,2.45-2.18-1.16-5.77-3.59-3.59-2.68,2.39-2.36,7.15.77,9.02s7.5.13,8.41-3.4c.52-2.01-.07-4.06-.56-6.02s-.94-3.74-1.45-5.6c-1.04-3.86-2.21-7.7-3.71-11.41-2.69-6.67-6.38-13.05-11.77-17.91-2.69-2.43-5.76-4.57-9.17-5.84-4.01-1.49-7.88-.45-11.71,1.03-8.3,3.21-16.2,7.35-23.54,12.38-1.13.78-1.64,2.23-.91,3.48.66,1.12,2.34,1.69,3.48.91h0Z"></path><path class="cls-4" d="M71.76,166.09l90.97-26.94s-15.9,70.66,10.16,109.08c26.06,38.42,6.18,100.03,6.18,100.03,0,0-51.67-27.82-84.13-17.89,0,0,38.65-39.02-10.6-82.8-35.77-31.8-12.59-81.48-12.59-81.48Z"></path><path class="cls-8" d="M81.7,173.04l53.21-12.25s-3.09,11.92,9.72,11.04c0,0-9.72,36.21,8.83,60.94s26.5,53.44,24.29,79.49c0,0-13.69,1.77-14.13,15.46,0,0-24.29-9.72-44.6-6.62,0,0,.69-8.53-6.6-7.54,0,0,11.01-35.19-8.86-54.73-28.89-28.41-35.11-49.68-31.13-71.87,0,0,11.59-.33,9.27-13.91Z"></path><path class="cls-12" d="M121.86,259.82c2.04,3.65,5.37,6.79,10.18,6.88,4.87.08,6.35-2.13,3.81-7.37-2.1-4.32-5.59-6.64-12.37-8.61-7.28-2.02-11.36-4.22-14.06-9.77-2.73-5.63-1.56-10.51,3.86-12.56,7.36-2.79,12.76,1.52,15.75,7.28l-4.78,1.24c-1.66-3.13-4.63-6.3-9.21-4.77-3.55,1.18-3.99,3.91-2.2,7.6,1.71,3.51,4.49,5.05,10.56,6.53,9.05,2.18,14.53,5.65,17.79,12.36,3.57,7.36,1.5,12.33-7.51,11.76-7.91-.5-12.68-4.77-15.73-10.39l3.92-.18ZM134.6,274.9l-24.1-49.64,2.53-1.07,24.75,50.99-3.18-.28Z"></path><polygon class="cls-4" points="73.25 137.11 97.76 149.36 100.58 143.4 79.05 126.51 73.25 137.11"></polygon><polygon class="cls-4" points="149.96 120.47 132.55 141.63 127.55 137.33 140.35 113.15 149.96 120.47"></polygon><polygon class="cls-4" points="102.5 111.74 109.69 138.18 116.01 136.31 114.27 109 102.5 111.74"></polygon><path class="cls-1" d="M157.84,334.8c-.82-.6-1.79-1.06-2.67-1.56-2.05-1.17-4.11-2.33-6.17-3.49-6.1-3.44-12.22-6.85-18.35-10.26s-12.52-6.94-18.8-10.38c-3.36-1.84-6.7-3.86-10.21-5.42s-8.25.64-10.26,3.66c-1.02,1.54-1.61,3.42-2.14,5.17-1.73,5.71-2.71,11.68-3.67,17.56-2.41,14.84-4.08,29.81-5.79,44.74-.31,2.7-.61,5.4-.94,8.1-.12,1.03-.25,2.06-.38,3.09-.03.22-.14.96,0,0-.03.2-.06.41-.08.61-.05.33-.09.66-.15.99-.06.4-.2.83-.24,1.23,0,.03-.06.13-.05.15-.17-.34.83-1.24,1.03-1.36.61-.35.59-.22.3-.15-.26.07-.02-.14.36-.04-.28-.07-.73.04-1.02.03-.7-.01-1.4-.08-2.09-.16-.83-.09-1.23-.15-2.35-.34-1.88-.32-3.76-.71-5.6-1.24-.67-.19-1.34-.4-1.99-.67.74.3.04-.03-.13-.1-.23-.09-.37-.42.2.17-.11-.12.44.74.47.85-.92-3.13-5.82-1.8-4.9,1.35.49,1.67,2.16,2.34,3.65,2.87,1.67.59,3.42.98,5.16,1.33,1.99.4,4.01.72,6.04.92,1.22.12,2.61.25,3.8-.15,1.8-.59,2.08-2.11,2.32-3.7.3-1.99.54-3.99.78-5.99.74-6.21,1.42-12.43,2.15-18.64.45-3.87.92-7.74,1.4-11.6.51-4.07.94-7.34,1.49-11.2.98-6.97,2.04-13.95,3.52-20.83.53-2.47,1.11-4.94,1.9-7.35.14-.43.29-.85.45-1.27.08-.22.18-.43.26-.65-.33.88-.05.14.04-.07.14-.3.3-.6.47-.89.08-.12.21-.26.26-.39.11-.29.22.73-.27.34,0,0,.15-.19.17-.2.06-.02.16-.15.22-.2-.46.41.64-.42.59-.39.36-.23.75-.47,1.14-.64,0,0,1.9-.55,1.86-.33,0,0-.85-.4-.15-.05.23.11.45.22.68.34,1.75.89,3.47,1.83,5.19,2.76,5.89,3.18,11.75,6.43,17.6,9.67,10.54,5.84,21.17,11.59,31.56,17.7.25.15.51.28.74.45,1.11.81,2.84.19,3.48-.91.75-1.29.2-2.66-.91-3.48h0Z"></path></g></svg>