<svg transform="scale(1)" id="_0244_recycling_3" xmlns="http://www.w3.org/2000/svg" xmlns:xlink="http://www.w3.org/1999/xlink" viewBox="0 0 500 500" class="show_show__wrapper__graphic__5Waiy "><title>React</title><defs><style>.cls-1{fill:url(#linear-gradient-11);}.cls-1,.cls-2,.cls-3,.cls-4,.cls-5,.cls-6,.cls-7,.cls-8,.cls-9,.cls-10,.cls-11,.cls-12,.cls-13,.cls-14,.cls-15,.cls-16,.cls-17,.cls-18,.cls-19,.cls-20,.cls-21{stroke-width:0px;}.cls-2{fill:url(#linear-gradient-12);}.cls-3{fill:url(#linear-gradient-13);}.cls-4{fill:url(#linear-gradient-10);}.cls-5{fill:url(#linear-gradient-16);}.cls-6{fill:url(#linear-gradient-15);}.cls-7{fill:url(#linear-gradient-14);}.cls-8{fill:url(#linear-gradient);}.cls-8,.cls-9,.cls-10{opacity:.65;}.cls-8,.cls-9,.cls-10,.cls-17{isolation:isolate;}.cls-9{fill:url(#linear-gradient-4);}.cls-10{fill:url(#linear-gradient-2);}.cls-11{fill:url(#linear-gradient-3);}.cls-12{fill:url(#linear-gradient-8);}.cls-13{fill:url(#linear-gradient-9);}.cls-14{fill:url(#linear-gradient-7);}.cls-15{fill:url(#linear-gradient-5);}.cls-16{fill:url(#linear-gradient-6);}.cls-17{opacity:.24;}.cls-17,.cls-21{fill:#30da56;}.cls-18{fill:#f2fbff;}.cls-19{fill:#231f20;}.cls-20{fill:#ffaa71;}</style><linearGradient id="linear-gradient" x1="191.75" y1="3768.57" x2="283.5" y2="3768.57" gradientTransform="translate(-55.39 3902.6) scale(1 -1)" gradientUnits="userSpaceOnUse"><stop offset="0" stop-color="#fff" stop-opacity="0"></stop><stop offset=".07" stop-color="#fff" stop-opacity=".22"></stop><stop offset=".16" stop-color="#fff" stop-opacity=".45"></stop><stop offset=".25" stop-color="#fff" stop-opacity=".65"></stop><stop offset=".33" stop-color="#fff" stop-opacity=".8"></stop><stop offset=".4" stop-color="#fff" stop-opacity=".91"></stop><stop offset=".46" stop-color="#fff" stop-opacity=".98"></stop><stop offset=".51" stop-color="#fff"></stop><stop offset=".56" stop-color="#fff" stop-opacity=".98"></stop><stop offset=".62" stop-color="#fff" stop-opacity=".91"></stop><stop offset=".69" stop-color="#fff" stop-opacity=".8"></stop><stop offset=".76" stop-color="#fff" stop-opacity=".65"></stop><stop offset=".84" stop-color="#fff" stop-opacity=".46"></stop><stop offset=".93" stop-color="#fff" stop-opacity=".23"></stop><stop offset="1" stop-color="#fff" stop-opacity="0"></stop></linearGradient><linearGradient id="linear-gradient-2" x1="306.45" y1="3737.64" x2="361.46" y2="3737.64" xlink:href="#linear-gradient"></linearGradient><linearGradient id="linear-gradient-3" x1="253.12" y1="3632.09" x2="296.74" y2="3781.08" gradientTransform="translate(-31 3904.32) scale(1 -1)" gradientUnits="userSpaceOnUse"><stop offset="0" stop-color="#010101" stop-opacity="0"></stop><stop offset=".95" stop-color="#010101"></stop></linearGradient><linearGradient id="linear-gradient-4" x1="205.83" y1="3610.94" x2="375.66" y2="3610.94" xlink:href="#linear-gradient"></linearGradient><linearGradient id="linear-gradient-5" x1="285.9" y1="3699.37" x2="285.12" y2="3669.83" gradientTransform="translate(-55.39 3902.6) scale(1 -1)" xlink:href="#linear-gradient-3"></linearGradient><linearGradient id="linear-gradient-6" x1="267.72" y1="3634.28" x2="300.13" y2="3634.28" gradientTransform="translate(-55.39 3902.6) scale(1 -1)" gradientUnits="userSpaceOnUse"><stop offset="0" stop-color="#fff" stop-opacity="0"></stop><stop offset=".95" stop-color="#fff"></stop></linearGradient><linearGradient id="linear-gradient-7" x1="309.44" y1="3607.28" x2="334.14" y2="3607.28" xlink:href="#linear-gradient-6"></linearGradient><linearGradient id="linear-gradient-8" x1="321.69" y1="3614.05" x2="322.65" y2="3585.88" xlink:href="#linear-gradient-6"></linearGradient><linearGradient id="linear-gradient-9" x1="271.28" y1="3609.05" x2="274.5" y2="3577.35" xlink:href="#linear-gradient-6"></linearGradient><linearGradient id="linear-gradient-10" x1="295.52" y1="3652.01" x2="334.77" y2="3572.86" gradientTransform="translate(-55.39 3902.6) scale(1 -1)" xlink:href="#linear-gradient-3"></linearGradient><linearGradient id="linear-gradient-11" x1="286.21" y1="3588.96" x2="465.04" y2="3623.14" gradientTransform="translate(-55.39 3902.6) scale(1 -1)" xlink:href="#linear-gradient-3"></linearGradient><linearGradient id="linear-gradient-12" x1="277.52" y1="3628.57" x2="228.71" y2="3540.84" gradientTransform="translate(-55.39 3902.6) scale(1 -1)" xlink:href="#linear-gradient-3"></linearGradient><linearGradient id="linear-gradient-13" x1="304.94" y1="3603.08" x2="513.68" y2="3608.87" gradientTransform="translate(-55.39 3902.6) scale(1 -1)" xlink:href="#linear-gradient-3"></linearGradient><linearGradient id="linear-gradient-14" x1="411.94" y1="3534.92" x2="388.01" y2="3529.01" gradientTransform="translate(-55.39 3902.6) scale(1 -1)" xlink:href="#linear-gradient-3"></linearGradient><linearGradient id="linear-gradient-15" x1="375.13" y1="3527.2" x2="337.98" y2="3532.56" gradientTransform="translate(-55.39 3902.6) scale(1 -1)" xlink:href="#linear-gradient-3"></linearGradient><linearGradient id="linear-gradient-16" x1="367.73" y1="3578.8" x2="374.92" y2="3672.51" gradientTransform="translate(-55.39 3902.6) scale(1 -1)" xlink:href="#linear-gradient-3"></linearGradient></defs><g id="background"><path class="cls-17" d="M129.13,169.49c-22.35,24.04-57.14,38.11-75.98,64.37-12.38,17.43-16.49,38.44-11.46,58.51,3.37,13.01,10.44,25.09,13.82,38.1,7.72,29.72-3.89,63.83,14.81,89.5,21.28,29.19,68.33,30.48,107.68,28.52l181.48-9.03c12.06-.6,24.18-1.21,35.94-3.6,38.47-7.81,70.63-35.98,79.68-69.79,6.45-24.07,1.02-51.17-17.56-69.71-7.89-7.95-18.08-14.28-24.27-23.33-14.09-20.6-3.37-46.86-4.77-70.88-1.47-25.96-18.71-50.77-44.25-63.78-26.4-13.45-57.63-14.26-86.22-21.92-22.02-5.93-40.94-18.92-62.76-24.47-57.39-14.52-78.19,47.43-106.14,77.51Z"></path><path class="cls-17" d="M126.06,425.67c-5.99.44-12.97,1.48-15.8,6.13-2.98,4.92.79,11.3,6.34,13.98,5.54,2.68,12.2,2.64,18.54,2.53l242.44-4.06c21.86-.36,47.47-2.51,58.93-18.9,1.74-2.51,3.08-5.59,1.91-8.34-1.73-4.09-7.64-5.12-12.58-5.5-48.74-3.65-106.01-7.79-153.46,4.35-45.5,11.66-98.91,6.27-146.32,9.81Z"></path></g><g id="recycle"><polygon class="cls-21" points="308.15 200.78 308.74 215.8 299.47 208.86 308.15 200.78"></polygon><path class="cls-21" d="M222.59,131.01c-8.13-13.35-22.64-22.91-38.08-29.6-15.44-6.69-32.1-10.92-48.14-16.4.9,16.26,2.45,32.63,7.74,48.21,5.29,15.57,14.6,30.5,28.87,40.86,6.61,4.79,14.54,8.63,23.09,8.95,31.76,1.2,38.43-32.45,26.52-52.01Z"></path><path class="cls-21" d="M268.03,152.46c10.9-7.42,24.55-10.88,38.05-13.24-4.71,7.65-8.44,15.74-11.11,24.13-1.54,4.87-2.75,9.86-5.12,14.48-2.37,4.61-6.1,8.9-11.33,11-8.49,3.4-26.64,2.97-27.4-7.74-.78-11.11,7.29-22.09,16.91-28.63Z"></path><path class="cls-8" d="M222.59,131.01c-8.13-13.35-22.64-22.91-38.08-29.6-15.44-6.69-32.1-10.92-48.14-16.4.9,16.26,2.45,32.63,7.74,48.21,5.29,15.57,14.6,30.5,28.87,40.86,6.61,4.79,14.54,8.63,23.09,8.95,31.76,1.2,38.43-32.45,26.52-52.01Z"></path><path class="cls-10" d="M268.03,152.46c10.9-7.42,24.55-10.88,38.05-13.24-4.71,7.65-8.44,15.74-11.11,24.13-1.54,4.87-2.75,9.86-5.12,14.48-2.37,4.61-6.1,8.9-11.33,11-8.49,3.4-26.64,2.97-27.4-7.74-.78-11.11,7.29-22.09,16.91-28.63Z"></path><polygon class="cls-21" points="173.81 201.57 308.15 200.78 299.47 208.86 311.74 217.79 164.37 217.79 187.74 210.67 173.81 201.57"></polygon><polygon class="cls-11" points="311.74 217.78 164.38 217.78 187.75 210.68 173.82 201.57 225.45 201.26 241.08 201.16 308.15 200.77 299.47 208.87 311.74 217.78"></polygon><path class="cls-21" d="M150.44,362.52l17.07-57.74-3.14-86.99h147.37l-6.74,79.09s15.27,65.64,15.27,68.01-169.83-2.37-169.83-2.37Z"></path><path class="cls-9" d="M150.44,362.52l17.07-57.74-3.14-86.99h147.37l-6.74,79.09s15.27,65.64,15.27,68.01-169.83-2.37-169.83-2.37Z"></path><polygon class="cls-21" points="173.81 201.57 173.14 215.12 187.74 210.67 173.81 201.57"></polygon><path class="cls-19" d="M279.24,164.89c-6.11,10.13-18.16,16.09-28.15,23.44-4.01,2.97-7.53,7.61-10.02,12.83-2.56,5.25-3.86,10.91-3.83,16.62h-11.22c-.29-5.44,0-13.15-.58-16.52,0-.18-.03-.36-.07-.54-1.92-8.9-7.24-19.9-12.59-27.6-8.69-12.61-16.31-23.18-28.33-33.37,25.58,11.87,42.01,43.62,47.07,59.19,15.41-13.3,31.8-22.69,47.71-34.03Z"></path><path class="cls-15" d="M279.24,164.89c-6.11,10.13-18.16,16.09-28.15,23.44-4.01,2.97-7.53,7.61-10.02,12.83-2.56,5.25-3.86,10.91-3.83,16.62h-11.22c-.29-5.44,0-13.15-.58-16.52,0-.18-.03-.36-.07-.54-1.92-8.9-7.24-19.9-12.59-27.6-8.69-12.61-16.31-23.18-28.33-33.37,25.58,11.87,42.01,43.62,47.07,59.19,15.41-13.3,31.8-22.69,47.71-34.03Z"></path><path class="cls-21" d="M211.94,274.11l15.17,7.99s11.46-21.75,17.24-22.89c0,0-15.75-1.93-19.74-.62s-12.67,15.52-12.67,15.52Z"></path><path class="cls-21" d="M236.13,269.14c1.21.02,2.32.6,2.92,1.52.84,1.52,2.59,4.68,2.59,4.68l-4.98,2.8,17.49.64,7.97-13.28-4.98,1.64s-5.4-9.14-11.49-7.42c-4.59,1.29-9.51,9.41-9.51,9.41Z"></path><path class="cls-21" d="M268.83,281l-15.17,7.93s16.29,19.22,14.68,24.24c0,0,9.42-11.27,10-14.98s-9.51-17.18-9.51-17.18Z"></path><path class="cls-21" d="M262.3,302.11c-.59.93-1.7,1.51-2.91,1.54-1.93-.06-5.9-.22-5.9-.22l-.44-5.19-8.96,13.22,9.46,12.48.74-4.64s11.7.17,12.88-5.36c.9-4.16-4.89-11.84-4.89-11.84Z"></path><path class="cls-21" d="M230.42,322.42l1.55-15.46s-27.24.42-30.94-3.66c0,0,4.9,13.3,7.99,15.89,3.08,2.59,21.4,3.22,21.4,3.22Z"></path><path class="cls-21" d="M211.94,274.11l15.17,7.99s11.46-21.75,17.24-22.89c0,0-15.75-1.93-19.74-.62s-12.67,15.52-12.67,15.52Z"></path><path class="cls-21" d="M268.83,281l-15.17,7.93s16.29,19.22,14.68,24.24c0,0,9.42-11.27,10-14.98s-9.51-17.18-9.51-17.18Z"></path><path class="cls-21" d="M230.42,322.42l1.55-15.46s-27.24.42-30.94-3.66c0,0,4.9,13.3,7.99,15.89,3.08,2.59,21.4,3.22,21.4,3.22Z"></path><path class="cls-21" d="M214.78,305.48c-.5-.96-.39-2.09.28-2.97,1.18-1.35,3.66-4.09,3.66-4.09l5.06,2.72-6.97-14.09-17.05-.52,3.83,3.15s-6.99,8.26-2.58,12.34c3.32,3.07,13.77,3.46,13.77,3.46Z"></path><path class="cls-21" d="M236.13,269.14c1.21.02,2.32.6,2.92,1.52.84,1.52,2.59,4.68,2.59,4.68l-4.98,2.8,17.49.64,7.97-13.28-4.98,1.64s-5.4-9.14-11.49-7.42c-4.59,1.29-9.51,9.41-9.51,9.41Z"></path><path class="cls-21" d="M262.3,302.11c-.59.93-1.7,1.51-2.91,1.54-1.93-.06-5.9-.22-5.9-.22l-.44-5.19-8.96,13.22,9.46,12.48.74-4.64s11.7.17,12.88-5.36c.9-4.16-4.89-11.84-4.89-11.84Z"></path><path class="cls-21" d="M214.78,305.48c-.5-.96-.39-2.09.28-2.97,1.18-1.35,3.66-4.09,3.66-4.09l5.06,2.72-6.97-14.09-17.05-.52,3.83,3.15s-6.99,8.26-2.58,12.34c3.32,3.07,13.77,3.46,13.77,3.46Z"></path><path class="cls-21" d="M236.13,269.14c1.21.02,2.32.6,2.92,1.52.84,1.52,2.59,4.68,2.59,4.68l-4.98,2.8,17.49.64,7.97-13.28-4.98,1.64s-5.4-9.14-11.49-7.42c-4.59,1.29-9.51,9.41-9.51,9.41Z"></path><path class="cls-21" d="M262.3,302.11c-.59.93-1.7,1.51-2.91,1.54-1.93-.06-5.9-.22-5.9-.22l-.44-5.19-8.96,13.22,9.46,12.48.74-4.64s11.7.17,12.88-5.36c.9-4.16-4.89-11.84-4.89-11.84Z"></path><path class="cls-21" d="M214.78,305.48c-.5-.96-.39-2.09.28-2.97,1.18-1.35,3.66-4.09,3.66-4.09l5.06,2.72-6.97-14.09-17.05-.52,3.83,3.15s-6.99,8.26-2.58,12.34c3.32,3.07,13.77,3.46,13.77,3.46Z"></path><path class="cls-16" d="M212.33,272.33l15.17,7.98s11.46-21.75,17.24-22.89c0,0-15.74-1.93-19.74-.62-3.99,1.31-12.67,15.53-12.67,15.53Z"></path><path class="cls-21" d="M236.51,267.36c1.2.01,2.31.57,2.92,1.48.84,1.52,2.6,4.68,2.6,4.68l-4.99,2.81,17.48.64,7.97-13.27-4.98,1.63s-5.4-9.14-11.49-7.42c-4.58,1.31-9.51,9.44-9.51,9.44Z"></path><path class="cls-14" d="M269.22,279.23l-15.17,7.93s16.28,19.22,14.67,24.24c0,0,9.42-11.27,10-14.99.58-3.72-9.51-17.18-9.51-17.18Z"></path><path class="cls-21" d="M262.68,300.29c-.6.93-1.7,1.51-2.92,1.54-1.93-.05-5.9-.22-5.9-.22l-.43-5.19-8.96,13.22,9.47,12.49.73-4.64s11.7.17,12.89-5.36c.89-4.13-4.9-11.84-4.9-11.84Z"></path><path class="cls-21" d="M230.8,320.62l1.54-15.48s-27.24.42-30.93-3.66c0,0,4.9,13.31,7.99,15.89,3.09,2.58,21.4,3.24,21.4,3.24Z"></path><path class="cls-16" d="M212.33,272.33l15.17,7.98s11.46-21.75,17.24-22.89c0,0-15.74-1.93-19.74-.62-3.99,1.31-12.67,15.53-12.67,15.53Z"></path><path class="cls-12" d="M269.22,279.23l-15.17,7.93s16.28,19.22,14.67,24.24c0,0,9.42-11.27,10-14.99.58-3.72-9.51-17.18-9.51-17.18Z"></path><path class="cls-13" d="M230.8,320.62l1.54-15.48s-27.24.42-30.93-3.66c0,0,4.9,13.31,7.99,15.89,3.09,2.58,21.4,3.24,21.4,3.24Z"></path><path class="cls-21" d="M215.16,303.65c-.5-.96-.4-2.09.28-2.97,1.17-1.34,3.65-4.09,3.65-4.09l5.06,2.72-6.98-14.09-17.05-.52,3.85,3.23s-6.99,8.26-2.53,12.35c3.26,3.03,13.72,3.37,13.72,3.37Z"></path><path class="cls-21" d="M236.51,267.36c1.2.01,2.31.57,2.92,1.48.84,1.52,2.6,4.68,2.6,4.68l-4.99,2.81,17.48.64,7.97-13.27-4.98,1.63s-5.4-9.14-11.49-7.42c-4.58,1.31-9.51,9.44-9.51,9.44Z"></path><path class="cls-21" d="M262.68,300.29c-.6.93-1.7,1.51-2.92,1.54-1.93-.05-5.9-.22-5.9-.22l-.43-5.19-8.96,13.22,9.47,12.49.73-4.64s11.7.17,12.89-5.36c.89-4.13-4.9-11.84-4.9-11.84Z"></path><path class="cls-21" d="M215.16,303.65c-.5-.96-.4-2.09.28-2.97,1.17-1.34,3.65-4.09,3.65-4.09l5.06,2.72-6.98-14.09-17.05-.52,3.85,3.23s-6.99,8.26-2.53,12.35c3.26,3.03,13.72,3.37,13.72,3.37Z"></path><path class="cls-4" d="M236.51,267.36c1.2.01,2.31.57,2.92,1.48.84,1.52,2.6,4.68,2.6,4.68l-4.99,2.81,17.48.64,7.97-13.27-4.98,1.63s-5.4-9.14-11.49-7.42c-4.58,1.31-9.51,9.44-9.51,9.44Z"></path><path class="cls-1" d="M262.68,300.29c-.6.93-1.7,1.51-2.92,1.54-1.93-.05-5.9-.22-5.9-.22l-.43-5.19-8.96,13.22,9.47,12.49.73-4.64s11.7.17,12.89-5.36c.89-4.13-4.9-11.84-4.9-11.84Z"></path><path class="cls-2" d="M215.16,303.65c-.5-.96-.4-2.09.28-2.97,1.17-1.34,3.65-4.09,3.65-4.09l5.06,2.72-6.98-14.09-17.05-.52,3.85,3.23s-6.99,8.26-2.53,12.35c3.26,3.03,13.72,3.37,13.72,3.37Z"></path></g><g id="character"><path class="cls-3" d="M265.5,282.81c2.21,2.4,5.28,4.03,8.03,5.93.51.31.94.7,1.27,1.16.52.82.4,1.82.51,2.76.27,2.17,1.87,4,3.41,5.7l14.67,16.24c1.89,2.26,4.06,4.33,6.49,6.16,1.56,1.08,3.41,2,5.39,1.92.53.02,1.05-.17,1.41-.52.19-.3.29-.64.28-.98.22-3.69.33-7.38.31-11.07.07-.34-.18-.67-.57-.74-.02,0-.03,0-.05,0-2.28-.73-4.51-1.57-6.69-2.51-1.94-.74-3.72-1.77-5.27-3.05-1.36-1.36-2.51-2.88-3.41-4.51-3.13-5.23-6.92-10.12-11.29-14.6-3.49-3.51-7.61-6.49-12.21-8.82-.78-.38-2.61-1.59-3.51-1.48-1.11.1-1.21,1.42-1.26,2.28-.04,2.24.85,4.41,2.5,6.12Z"></path><path class="cls-20" d="M354.81,410.32l9.4,13.88c3.9-.84,6.57-4,6.36-7.53l-8.17-13.35"></path><path class="cls-20" d="M364.2,424.2s-2.61,10.03-6.35,11.22,5.23-.39,6.97-1.94c1.74-1.55,4.27-12.3,4.27-12.3"></path><path class="cls-20" d="M292.23,414.01l-1.35,14.58c3.37,1.17,7.21.08,9.17-2.6l1.92-13.59"></path><path class="cls-20" d="M290.88,428.59s-10.04,8.04-13.48,7.19,6.23.27,8.43-.07,13.3-6.22,13.3-6.22"></path><path class="cls-21" d="M300.12,425.48s2.29,2.02,2.03,3.71c-.26,1.69-1.22,8.9-1.22,8.9-.49.13-1.01.08-1.47-.12-.74-.34-.61-7.85-2.13-5.84-2.87,3.79-1.91,5.19-8.48,6.1-1.83.24-19.38-1.41-9.05-3.56,0,0,6.45.42,9.21-2.04s7.48-7.75,11.11-7.15Z"></path><path class="cls-20" d="M306.39,231.92c-.07.74-.73,9.71.08,13.51.81,3.8,3.59,9,7.13,8.29,3.54-.7,5.11-1.76,5.12,0-.12,1.74-.37,3.48-.76,5.19,0,0,4.35,2.76,8.28,1.7,2.2-.49,3.97-1.93,4.71-3.83,0,0-1.98-2.08-1.22-7.62.76-5.55,6.6-17.7-1.69-23.55-5.07-3.57-20.71-4.18-21.64,6.31Z"></path><path class="cls-20" d="M285.92,282.1s-2.03-6.85-4.66-8.35c-2.63-1.5-3.56-2.63-4.15-2.22s.47,1.89.47,1.89c0,0,1.96,1.65.62,1.84s-10.88-5.11-13.57-4.91-1.05,3.71-1.74,5.26c-.69,1.55,5.99,5.7,8.69,7.01s6.3,3.62,8.03,4.45,6.36-2.92,6.3-4.96Z"></path><path class="cls-19" d="M348.71,328.14l-2.37,33.66,23.55,51.37s.9,4.93-10.42,6.47l-31.25-54.47-6.41-41.8"></path><path class="cls-7" d="M348.71,328.14l-2.37,33.66,23.55,51.37s.9,4.93-10.42,6.47l-31.25-54.47-6.41-41.8"></path><path class="cls-19" d="M307.02,324.95l-18.47,98.06s3.8,3.89,15.21,1.53l10.62-43.82,24.88-51.07s-16.47-13.27-32.24-4.69Z"></path><path class="cls-6" d="M307.02,324.95l-18.47,98.06s3.8,3.89,15.21,1.53l10.62-43.82,24.88-51.07s-16.47-13.27-32.24-4.69Z"></path><path class="cls-21" d="M324.93,256.83s-7.46.7-10.4,4.05c-4.84,5.52-13.69,37.04-13.69,37.04l-14.95-15.82s-7.85-.81-8.25,7.1c0,0,17.11,20.51,23.77,25.11,6.67,4.6,14.96-3.89,17.09-8.57,2.13-4.67,8.12-32.3,8.12-32.3,0,0,3.23-15.56-1.69-16.62Z"></path><path class="cls-21" d="M334.55,258.96c6.92,7.54,13.33,61.56,15.11,65.01,0,0-11.53,4.26-29.33,5.3-4.89.23-9.79-.21-14.53-1.32,0,0,7.69-44.92,7.91-51.25.22-6.33,3.44-17.8,3.44-17.8,0,0,11.91-5.91,17.39.07Z"></path><path class="cls-18" d="M306.39,328.08s-2.79,6.34-2.08,6.54,7.69-3.18,9.85-2.05,8.55,6.93,17.06,8.45c8.5,1.52,17.18-4.37,17.54-8.68s.92-8.37.92-8.37c0,0-38.01,6.26-43.28,4.11Z"></path><path class="cls-5" d="M319.59,283.01s-6.2,26.45-7.88,29.43c-1.68,2.98-3.89,2.87-3.89,2.87l-1.79,13.12,11.88.3,1.68-45.71Z"></path><path class="cls-21" d="M371.53,415.86s-1.62.81-2.42,4.06c-.8,3.26-2.85,11.38-4.96,12.3-2.12.91-2.92-.04-3.48,0s-4.74,3.92-4.53,4.29.61.58,3.74,0c3.13-.58,9.05-2.55,9.2-3.35.15-.8,1.63-7.91,3.05-8.02s.29,7.58.8,7.63,1.25.16,1.33-.7,1.45-9.98.94-12.12c-.51-2.14-1.69-3.41-3.67-4.09Z"></path><path class="cls-19" d="M302.89,229.04c-.73,2.34-.47,5.3,1.9,6.53,1.27.67,2.85.65,4.33.62,1.76-.04,3.88-.27,4.62-1.68l.29,2.03,5.27-.09c3.59,3.63-2.05,10.04,1.28,13.86,1,1.16,2.82,2.08,2.64,3.53-.19.68-.56,1.31-1.07,1.85-2.04,2.83-1.08,6.57,2.13,8.36,1.91,1.06,4.29,1.24,6.37.46.55-.26,1.13-.45,1.74-.55,1.44-.12,2.61,1.04,3.18,2.22.56,1.19.84,2.5,1.77,3.47,2.01,2.11,5.83,1.48,8.8.59,1.05-.24,2.01-.72,2.8-1.38.8-.93,1.14-2.09.96-3.24-.29-3.12-2.53-5.8-4.42-8.44s-3.67-5.72-2.92-8.77c.45-1.8,1.69-3.37,2.25-5.15.67-2.35,0-4.85-1.82-6.67-1.9-1.88-4.94-2.97-6.02-5.29-1.02-2.22.08-4.89-1.06-7.05-1.05-2-3.75-2.97-6.25-2.97-1.23.1-2.48.02-3.68-.23-.77-.29-1.51-.66-2.19-1.1-8.05-4.39-18.62,1.93-20.89,9.07Z"></path></g></svg>